<?xml version="1.0" encoding="utf-8"?>
<!-- Generator: Adobe Illustrator 16.0.0, SVG Export Plug-In . SVG Version: 6.00 Build 0)  -->
<!DOCTYPE svg PUBLIC "-//W3C//DTD SVG 1.1//EN" "http://www.w3.org/Graphics/SVG/1.1/DTD/svg11.dtd">
<svg version="1.1" xmlns="http://www.w3.org/2000/svg" xmlns:xlink="http://www.w3.org/1999/xlink" x="0px" y="0px"
	 width="266.667px" height="48px" viewBox="0 0 266.667 48" enable-background="new 0 0 266.667 48" xml:space="preserve">
<g id="Layer_1" display="none">
	
		<image display="inline" overflow="visible" width="1161" height="1161" xlink:href="../../../../Downloads/af12ba43db867264ab81809418a91421.jpg"  transform="matrix(0.4421 0 0 0.4421 -640.8203 -149.0078)">
	</image>
</g>
<g id="Layer_2">
	<path d="M245.626,25.597h-0.01c-0.104-0.39-1.405-2.332-16.824-2.931c-17.167-0.667-23.833-5.5-37-11.833s-19,4.833-19,4.833
		s-2.666,10.5-12.166,2.333c0,0-17.999,12-39.499,1s-24.833-14.834-39,3.166c0,0-26.501,6.228-30.501-4.887
		c0,0-5.666,10.386-13.666,0.886s-18.167-4.5-20.334-2.167c-1.852,1.995-4.127,3.68-4.853,8.324l-0.231-0.001
		c0.012,0.461,0.037,0.895,0.072,1.312c-0.035,0.417-0.061,0.851-0.072,1.312l0.231-0.001c0.726,4.644,3.001,6.328,4.853,8.324
		c2.167,2.333,12.334,7.332,20.334-2.168c8-9.5,13.667,0.887,13.667,0.887c4-11.114,30.5-4.887,30.5-4.887
		c14.167,18,17.5,14.166,39,3.166s39.499,1,39.499,1c9.5-8.167,12.166,2.332,12.166,2.332s5.833,11.167,19,4.834
		c13.167-6.334,19.833-11.168,37-11.834c15.419-0.598,16.72-2.541,16.824-2.931h0.01c0,0,0.001-0.013-0.002-0.035
		C245.627,25.61,245.626,25.597,245.626,25.597z"/>
</g>
<g id="Layer_5">
	<path fill="#F1EADE" d="M-384.2-130.833c-130.839,0-236.905,106.066-236.905,236.905c0,130.839,106.066,236.906,236.905,236.906
		s236.905-106.066,236.905-236.906C-147.295-24.767-253.361-130.833-384.2-130.833z M-383.17,231.978
		c-71.401,0-129.282-57.883-129.282-129.283c0-71.401,57.881-129.283,129.282-129.283c71.401,0,129.283,57.881,129.283,129.283
		C-253.887,174.095-311.769,231.978-383.17,231.978z"/>
</g>
<g id="Layer_3">
	<circle fill="none" cx="-383.535" cy="103.278" r="137.333"/>
	
		<text transform="matrix(0.4457 -0.0622 0.1381 0.9904 -420.9194 -30.1763)" font-family="'TimesNewRomanPS-BoldMT'" font-size="115">X</text>
	<text transform="matrix(0.45 0.0058 -0.0128 0.9999 -391.708 -34.2017)" font-family="'TimesNewRomanPS-BoldMT'" font-size="115">I</text>
	
		<text transform="matrix(0.4473 0.0494 -0.1099 0.9939 -378.418 -34.3638)" font-family="'TimesNewRomanPS-BoldMT'" font-size="115">I</text>
	
		<text transform="matrix(0.4424 0.0823 -0.1829 0.9831 -364.7969 -32.9644)" font-family="'TimesNewRomanPS-BoldMT'" font-size="115"> </text>
	
		<text transform="matrix(0.4376 0.1047 -0.2327 0.9726 -357.9346 -31.8413)" font-family="'TimesNewRomanPS-BoldMT'" font-size="115"> </text>
	
		<text transform="matrix(0.4318 0.1268 -0.2817 0.9595 -351.1406 -30.3706)" font-family="'TimesNewRomanPS-BoldMT'" font-size="115"> </text>
	
		<text transform="matrix(0.4248 0.1485 -0.3299 0.944 -344.4238 -28.5562)" font-family="'TimesNewRomanPS-BoldMT'" font-size="115"> </text>
	
		<text transform="matrix(0.4168 0.1697 -0.3772 0.9261 -337.8262 -26.4087)" font-family="'TimesNewRomanPS-BoldMT'" font-size="115"> </text>
	
		<text transform="matrix(0.4077 0.1905 -0.4234 0.9059 -331.333 -23.9272)" font-family="'TimesNewRomanPS-BoldMT'" font-size="115"> </text>
	
		<text transform="matrix(0.3926 0.2199 -0.4886 0.8725 -325.2471 -21.4858)" font-family="'TimesNewRomanPS-BoldMT'" font-size="115">I</text>
	
		<text transform="matrix(0.3754 0.2481 -0.5513 0.8343 -313.2197 -14.8677)" font-family="'TimesNewRomanPS-BoldMT'" font-size="115"> </text>
	
		<text transform="matrix(0.3625 0.2666 -0.5926 0.8055 -307.335 -11.1587)" font-family="'TimesNewRomanPS-BoldMT'" font-size="115"> </text>
	
		<text transform="matrix(0.3487 0.2845 -0.6322 0.7748 -301.6592 -7.1714)" font-family="'TimesNewRomanPS-BoldMT'" font-size="115"> </text>
	<text transform="matrix(0.3339 0.3017 -0.6705 0.7419 -296.167 -2.8853)" font-family="'TimesNewRomanPS-BoldMT'" font-size="115"> </text>
	<text transform="matrix(0.3182 0.3182 -0.7071 0.7071 -290.9092 1.6636)" font-family="'TimesNewRomanPS-BoldMT'" font-size="115"> </text>
	<text transform="matrix(0.3017 0.3339 -0.7419 0.6705 -285.8779 6.481)" font-family="'TimesNewRomanPS-BoldMT'" font-size="115"> </text>
	<text transform="matrix(0.2763 0.3552 -0.7893 0.614 -281.2354 11.0649)" font-family="'TimesNewRomanPS-BoldMT'" font-size="115">I</text>
	
		<text transform="matrix(0.2406 0.3803 -0.8451 0.5347 -272.8135 21.3511)" font-family="'TimesNewRomanPS-BoldMT'" font-size="115">I</text>
	<text transform="matrix(0.2118 0.397 -0.8823 0.4707 -265.4062 32.8618)" font-family="'TimesNewRomanPS-BoldMT'" font-size="115"> </text>
	<text transform="matrix(0.1914 0.4073 -0.9051 0.4252 -262 38.9224)" font-family="'TimesNewRomanPS-BoldMT'" font-size="115"> </text>
	
		<text transform="matrix(0.1704 0.4165 -0.9255 0.3788 -258.9111 45.1431)" font-family="'TimesNewRomanPS-BoldMT'" font-size="115"> </text>
	<text transform="matrix(0.149 0.4246 -0.9436 0.3312 -256.1396 51.5142)" font-family="'TimesNewRomanPS-BoldMT'" font-size="115"> </text>
	<text transform="matrix(0.126 0.432 -0.96 0.2801 -253.6885 57.9653)" font-family="'TimesNewRomanPS-BoldMT'" font-size="115"> </text>
	
		<text transform="matrix(0.1178 0.4343 -0.9651 0.2617 -251.7715 64.6274)" font-family="'TimesNewRomanPS-BoldMT'" font-size="115"> </text>
	
		<text transform="matrix(0.0816 0.4425 -0.9834 0.1813 -249.7842 71.2983)" font-family="'TimesNewRomanPS-BoldMT'" font-size="115"> </text>
	
		<text transform="matrix(0.0496 0.4473 -0.9939 0.1102 -248.1904 77.6733)" font-family="'TimesNewRomanPS-BoldMT'" font-size="115">I</text>
	<text transform="matrix(0.0079 0.4499 -0.9998 0.0176 -246.373 90.9321)" font-family="'TimesNewRomanPS-BoldMT'" font-size="115">I</text>
	
		<text transform="matrix(-0.0357 0.4486 -0.9968 -0.0793 -245.8037 104.2095)" font-family="'TimesNewRomanPS-BoldMT'" font-size="115">I</text>
	
		<text transform="matrix(-0.0688 0.4447 -0.9882 -0.1529 -246.7871 117.8765)" font-family="'TimesNewRomanPS-BoldMT'" font-size="115"> </text>
	
		<text transform="matrix(-0.0913 0.4406 -0.9792 -0.2029 -247.6982 124.7603)" font-family="'TimesNewRomanPS-BoldMT'" font-size="115"> </text>
	
		<text transform="matrix(-0.1135 0.4354 -0.9676 -0.2523 -248.957 131.5864)" font-family="'TimesNewRomanPS-BoldMT'" font-size="115"> </text>
	
		<text transform="matrix(-0.1453 0.4259 -0.9464 -0.3229 -250.2451 137.9849)" font-family="'TimesNewRomanPS-BoldMT'" font-size="115">I</text>
	
		<text transform="matrix(-0.1857 0.4099 -0.9109 -0.4126 -254.2236 150.6685)" font-family="'TimesNewRomanPS-BoldMT'" font-size="115">I</text>
	
		<text transform="matrix(-0.2243 0.3901 -0.867 -0.4983 -259.4219 162.9409)" font-family="'TimesNewRomanPS-BoldMT'" font-size="115">I</text>
	
		<text transform="matrix(-0.2606 0.3669 -0.8153 -0.5791 -265.7568 174.6216)" font-family="'TimesNewRomanPS-BoldMT'" font-size="115">I</text>
	
		<text transform="matrix(-0.2868 0.3468 -0.7706 -0.6373 -273.624 185.8755)" font-family="'TimesNewRomanPS-BoldMT'" font-size="115"> </text>
	
		<text transform="matrix(-0.3039 0.3319 -0.7375 -0.6753 -277.9307 191.3218)" font-family="'TimesNewRomanPS-BoldMT'" font-size="115"> </text>
	
		<text transform="matrix(-0.3202 0.3161 -0.7026 -0.7116 -282.5137 196.5513)" font-family="'TimesNewRomanPS-BoldMT'" font-size="115"> </text>
	
		<text transform="matrix(-0.3358 0.2996 -0.6657 -0.7462 -287.3652 201.5542)" font-family="'TimesNewRomanPS-BoldMT'" font-size="115"> </text>
	
		<text transform="matrix(-0.3505 0.2822 -0.627 -0.779 -292.4355 206.2827)" font-family="'TimesNewRomanPS-BoldMT'" font-size="115"> </text>
	
		<text transform="matrix(-0.384 0.2347 -0.5215 -0.8532 -295.9541 210.7466)" font-family="'TimesNewRomanPS-BoldMT'" font-size="115">V</text>
	
		<text transform="matrix(-0.4111 0.1831 -0.4069 -0.9135 -321.6172 226.0708)" font-family="'TimesNewRomanPS-BoldMT'" font-size="115"> </text>
	
		<text transform="matrix(-0.4198 0.162 -0.3601 -0.9329 -327.8936 229.0347)" font-family="'TimesNewRomanPS-BoldMT'" font-size="115"> </text>
	
		<text transform="matrix(-0.4275 0.1406 -0.3125 -0.9499 -334.3418 231.6812)" font-family="'TimesNewRomanPS-BoldMT'" font-size="115"> </text>
	
		<text transform="matrix(-0.434 0.119 -0.2643 -0.9644 -340.8994 233.9956)" font-family="'TimesNewRomanPS-BoldMT'" font-size="115"> </text>
	
		<text transform="matrix(-0.4394 0.0971 -0.2157 -0.9765 -347.5781 235.979)" font-family="'TimesNewRomanPS-BoldMT'" font-size="115"> </text>
	
		<text transform="matrix(-0.4437 0.075 -0.1666 -0.986 -354.3369 237.6255)" font-family="'TimesNewRomanPS-BoldMT'" font-size="115"> </text>
	
		<text transform="matrix(-0.4497 0.0177 -0.0393 -0.9992 -359.6035 239.7964)" font-family="'TimesNewRomanPS-BoldMT'" font-size="115">V</text>
	
		<text transform="matrix(-0.4471 -0.0507 0.1127 -0.9936 -389.0449 240.9028)" font-family="'TimesNewRomanPS-BoldMT'" font-size="115">I</text>
	
		<text transform="matrix(-0.4421 -0.0837 0.186 -0.9825 -402.687 239.4604)" font-family="'TimesNewRomanPS-BoldMT'" font-size="115"> </text>
	
		<text transform="matrix(-0.4373 -0.1061 0.2357 -0.9718 -409.5435 238.3188)" font-family="'TimesNewRomanPS-BoldMT'" font-size="115"> </text>
	
		<text transform="matrix(-0.4314 -0.1281 0.2846 -0.9586 -416.3325 236.8276)" font-family="'TimesNewRomanPS-BoldMT'" font-size="115"> </text>
	
		<text transform="matrix(-0.4114 -0.1824 0.4052 -0.9142 -422.0239 236.4487)" font-family="'TimesNewRomanPS-BoldMT'" font-size="115">V</text>
	
		<text transform="matrix(-0.3793 -0.2422 0.5382 -0.8428 -448.9448 224.4546)" font-family="'TimesNewRomanPS-BoldMT'" font-size="115">I</text>
	
		<text transform="matrix(-0.3543 -0.2775 0.6166 -0.7873 -460.3413 217.5659)" font-family="'TimesNewRomanPS-BoldMT'" font-size="115">I</text>
	
		<text transform="matrix(-0.333 -0.3026 0.6725 -0.7401 -471.2017 209.1938)" font-family="'TimesNewRomanPS-BoldMT'" font-size="115"> </text>
	
		<text transform="matrix(-0.3173 -0.3191 0.709 -0.7052 -476.4468 204.6304)" font-family="'TimesNewRomanPS-BoldMT'" font-size="115"> </text>
	
		<text transform="matrix(-0.2737 -0.3572 0.7938 -0.6082 -481.2544 201.5933)" font-family="'TimesNewRomanPS-BoldMT'" font-size="115">V</text>
	
		<text transform="matrix(-0.2163 -0.3946 0.8769 -0.4806 -499.1411 178.1655)" font-family="'TimesNewRomanPS-BoldMT'" font-size="115">I</text>
	
		<text transform="matrix(-0.177 -0.4137 0.9194 -0.3934 -505.811 166.6841)" font-family="'TimesNewRomanPS-BoldMT'" font-size="115">I</text>
	
		<text transform="matrix(-0.1363 -0.4289 0.953 -0.3028 -511.3374 154.604)" font-family="'TimesNewRomanPS-BoldMT'" font-size="115">I</text>
	
		<text transform="matrix(-0.1046 -0.4377 0.9726 -0.2325 -515.5903 141.5493)" font-family="'TimesNewRomanPS-BoldMT'" font-size="115"> </text>
	
		<text transform="matrix(-0.0826 -0.4424 0.983 -0.1835 -517.3569 134.7935)" font-family="'TimesNewRomanPS-BoldMT'" font-size="115"> </text>
	
		<text transform="matrix(-0.0603 -0.4459 0.991 -0.1339 -518.7808 127.9976)" font-family="'TimesNewRomanPS-BoldMT'" font-size="115"> </text>
	
		<text transform="matrix(-0.0275 -0.4492 0.9981 -0.061 -520.0229 121.5737)" font-family="'TimesNewRomanPS-BoldMT'" font-size="115">I</text>
	
		<text transform="matrix(0.0409 -0.4481 0.9959 0.091 -522.0288 109.3345)" font-family="'TimesNewRomanPS-BoldMT'" font-size="115">X</text>
	
		<text transform="matrix(0.0984 -0.4391 0.9758 0.2187 -519.0093 79.6304)" font-family="'TimesNewRomanPS-BoldMT'" font-size="115"> </text>
	
		<text transform="matrix(0.1206 -0.4336 0.9634 0.2679 -517.6362 72.8071)" font-family="'TimesNewRomanPS-BoldMT'" font-size="115"> </text>
	<text transform="matrix(0.1424 -0.4269 0.9486 0.3164 -515.9165 66.061)" font-family="'TimesNewRomanPS-BoldMT'" font-size="115"> </text>
	<text transform="matrix(0.1638 -0.4191 0.9314 0.364 -513.8638 59.4272)" font-family="'TimesNewRomanPS-BoldMT'" font-size="115"> </text>
	<text transform="matrix(0.1847 -0.4103 0.9118 0.4105 -511.4741 52.896)" font-family="'TimesNewRomanPS-BoldMT'" font-size="115"> </text>
	
		<text transform="matrix(0.2356 -0.3834 0.8519 0.5237 -510.3335 47.3062)" font-family="'TimesNewRomanPS-BoldMT'" font-size="115">X</text>
	
		<text transform="matrix(0.2827 -0.3501 0.7781 0.6281 -494.4116 21.9829)" font-family="'TimesNewRomanPS-BoldMT'" font-size="115"> </text>
	
		<text transform="matrix(0.2999 -0.3355 0.7456 0.6664 -490.1694 16.4897)" font-family="'TimesNewRomanPS-BoldMT'" font-size="115"> </text>
	<text transform="matrix(0.3165 -0.3199 0.7109 0.7033 -485.6333 11.189)" font-family="'TimesNewRomanPS-BoldMT'" font-size="115"> </text>
	<text transform="matrix(0.3322 -0.3035 0.6745 0.7383 -480.8638 6.1509)" font-family="'TimesNewRomanPS-BoldMT'" font-size="115"> </text>
	<text transform="matrix(0.3472 -0.2863 0.6362 0.7715 -475.8325 1.3481)" font-family="'TimesNewRomanPS-BoldMT'" font-size="115"> </text>
	<text transform="matrix(0.3812 -0.2392 0.5315 0.847 -472.3589 -3.1626)" font-family="'TimesNewRomanPS-BoldMT'" font-size="115">X</text>
	
		<text transform="matrix(0.4131 -0.1785 0.3967 0.918 -447.3911 -18.7661)" font-family="'TimesNewRomanPS-BoldMT'" font-size="115">I</text>
	<circle fill="none" stroke="#000000" stroke-miterlimit="10" cx="-383.58" cy="106.167" r="237"/>
	<circle fill="none" stroke="#000000" stroke-miterlimit="10" cx="-383.201" cy="105.568" r="220.902"/>
</g>
<g id="Layer_4">
	<path fill="none" stroke="#414042" stroke-width="0.5" stroke-miterlimit="10" d="M-602.918,83.302l-16.717-1.756
		c-0.842,8.129-1.28,16.379-1.28,24.732h16.812C-604.103,98.519-603.698,90.855-602.918,83.302z"/>
	<path fill="none" stroke="#414042" stroke-width="0.5" stroke-miterlimit="10" d="M-384.2-114.61v-15.813
		c-8.354,0-16.604,0.438-24.732,1.279l1.663,15.831C-399.688-114.134-391.992-114.575-384.2-114.61z"/>
	<path fill="none" stroke="#414042" stroke-width="0.5" stroke-miterlimit="10" d="M-383.203-114.623
		c7.459,0,14.83,0.375,22.1,1.097l1.641-15.618c-8.131-0.842-16.382-1.28-24.737-1.28v15.813
		C-383.867-114.611-383.536-114.623-383.203-114.623z"/>
	<path fill="none" stroke="#414042" stroke-width="0.5" stroke-miterlimit="10" d="M-599.346,60.524l-16.367-3.48L-599.346,60.524
		c1.593-7.561,3.576-14.977,5.92-22.231l-15.932-5.177l15.932,5.177c2.373-7.343,5.117-14.519,8.216-21.503l-15.247-6.788
		l15.247,6.788c3.124-7.041,6.594-13.895,10.409-20.525l-14.445-8.338l14.445,8.338c3.846-6.684,8.042-13.139,12.544-19.359
		l-13.461-9.781l13.461,9.781c4.502-6.22,9.319-12.196,14.43-17.905l-12.289-11.062L-547.827-41
		c5.143-5.744,10.573-11.225,16.284-16.404L-542.55-69.63l11.007,12.227c5.68-5.151,11.637-10,17.833-14.545l-9.654-13.285
		l9.654,13.285c6.2-4.548,12.644-8.781,19.312-12.674l-8.158-14.132l8.158,14.132c6.622-3.865,13.457-7.404,20.493-10.577
		l-6.575-14.767l6.575,14.767c6.984-3.149,14.167-5.935,21.515-8.356l-4.976-15.31l4.976,15.31
		c7.265-2.394,14.697-4.419,22.274-6.058l-3.32-15.609l3.32,15.609c7.482-1.619,15.103-2.86,22.846-3.7l-1.663-15.831
		c-111.062,11.504-199.197,99.631-210.703,210.689l16.717,1.756C-602.12,75.583-600.918,67.986-599.346,60.524z"/>
	<path fill="none" stroke="#414042" stroke-width="0.5" stroke-miterlimit="10" d="M-338.191-110.028l3.231-15.194L-338.191-110.028
		c7.608,1.575,15.07,3.55,22.37,5.886l4.785-14.724l-4.785,14.724c7.396,2.366,14.621,5.112,21.655,8.213l6.25-14.038l-6.25,14.038
		c7.092,3.127,13.994,6.606,20.671,10.434l7.655-13.26l-7.655,13.26c6.731,3.859,13.233,8.07,19.496,12.594l8.962-12.333
		l-8.962,12.333c6.265,4.525,12.281,9.37,18.027,14.512l10.12-11.242l-10.12,11.242c5.784,5.175,11.3,10.642,16.511,16.392
		l11.182-10.064l-11.182,10.064c5.181,5.719,10.058,11.716,14.624,17.956l12.16-8.835l-12.16,8.835
		c4.569,6.242,8.821,12.729,12.727,19.445l12.956-7.478l-12.956,7.478c3.877,6.667,7.417,13.554,10.592,20.641l13.576-6.044
		l-13.576,6.044c3.151,7.032,5.938,14.262,8.351,21.66l14.124-4.589l-14.124,4.589c2.386,7.311,4.402,14.788,6.023,22.413
		l14.458-3.075l-14.458,3.075c1.6,7.525,2.823,15.189,3.636,22.977l14.743-1.549C-160.271-29.511-248.4-117.637-359.463-129.143
		l-1.641,15.618C-353.341-112.754-345.697-111.582-338.191-110.028z"/>
	<path fill="none" stroke="#414042" stroke-width="0.5" stroke-miterlimit="10" d="M-162.3,106.278h14.813
		c0-8.354-0.438-16.603-1.279-24.732l-14.743,1.549C-162.714,90.715-162.3,98.448-162.3,106.278z"/>
	<path fill="none" stroke="#414042" stroke-width="0.5" stroke-miterlimit="10" d="M-430.116,322.17l-3.319,15.607L-430.116,322.17
		c-7.577-1.639-15.009-3.664-22.274-6.059l-4.975,15.309l4.975-15.309c-7.348-2.422-14.53-5.207-21.515-8.356l-6.574,14.765
		l6.574-14.765c-7.037-3.173-13.872-6.712-20.493-10.577l-8.157,14.131l8.157-14.131c-6.669-3.893-13.113-8.126-19.313-12.675
		l-9.653,13.284l9.653-13.284c-6.195-4.544-12.152-9.394-17.833-14.545l-11.006,12.226l11.006-12.226
		c-5.71-5.179-11.141-10.659-16.283-16.402l-12.29,11.062l12.29-11.062c-5.111-5.709-9.928-11.685-14.43-17.905l-13.462,9.781
		l13.462-9.781c-4.502-6.221-8.699-12.676-12.546-19.36l-14.444,8.337l14.444-8.337c-3.815-6.631-7.286-13.485-10.409-20.526
		l-15.246,6.787l15.246-6.787c-3.099-6.984-5.842-14.159-8.215-21.503l-15.931,5.177l15.931-5.177
		c-2.344-7.253-4.327-14.668-5.919-22.228l-16.368,3.48l16.368-3.48c-1.572-7.462-2.774-15.06-3.572-22.778l-16.717,1.756
		c11.506,111.056,99.641,199.182,210.703,210.687l1.663-15.828C-415.013,325.03-422.634,323.789-430.116,322.17z"/>
	<path fill="none" stroke="#414042" stroke-width="0.5" stroke-miterlimit="10" d="M-167.146,152.439l14.459,3.075L-167.146,152.439
		c-1.621,7.624-3.636,15.1-6.021,22.41l14.123,4.589l-14.123-4.589c-2.414,7.397-5.199,14.628-8.35,21.659l13.574,6.043
		l-13.574-6.043c-3.176,7.087-6.716,13.974-10.593,20.642l12.955,7.478l-12.955-7.478c-3.905,6.717-8.158,13.204-12.728,19.447
		l12.16,8.835l-12.16-8.835c-4.566,6.239-9.443,12.237-14.625,17.956l11.183,10.064l-11.183-10.064
		c-5.21,5.75-10.726,11.216-16.508,16.391l10.118,11.24l-10.118-11.24c-5.747,5.142-11.764,9.987-18.028,14.512l8.961,12.332
		l-8.961-12.332c-6.263,4.523-12.765,8.735-19.496,12.595l7.654,13.259l-7.654-13.259c-6.678,3.828-13.579,7.307-20.672,10.434
		l6.25,14.036l-6.25-14.036c-7.033,3.103-14.259,5.848-21.654,8.214l4.784,14.723l-4.784-14.723
		c-7.301,2.336-14.763,4.312-22.371,5.887l3.231,15.193l-3.231-15.193c-7.506,1.554-15.149,2.727-22.912,3.497l1.641,15.615
		c111.062-11.506,199.191-99.631,210.697-210.686l-14.743-1.549C-164.321,137.25-165.545,144.914-167.146,152.439z"/>
	<path fill="none" stroke="#414042" stroke-width="0.5" stroke-miterlimit="10" d="M-383.203,327.179
		c-0.333,0-0.664-0.011-0.997-0.013v15.811c8.355,0,16.606-0.438,24.737-1.28l-1.641-15.615
		C-368.373,326.804-375.744,327.179-383.203,327.179z"/>
	<path fill="none" stroke="#414042" stroke-width="0.5" stroke-miterlimit="10" d="M-604.103,106.278h-16.812
		c0,8.354,0.438,16.604,1.28,24.733l16.717-1.756C-603.698,121.702-604.103,114.038-604.103,106.278z"/>
	<path fill="none" stroke="#414042" stroke-width="0.5" stroke-miterlimit="10" d="M-162.3,106.278
		c0,7.831-0.414,15.564-1.209,23.184l14.743,1.549c0.842-8.129,1.279-16.379,1.279-24.733H-162.3z"/>
	<path fill="none" stroke="#414042" stroke-width="0.5" stroke-miterlimit="10" d="M-407.27,325.87l-1.663,15.828
		c8.129,0.842,16.379,1.279,24.732,1.279v-15.811C-391.992,327.132-399.688,326.691-407.27,325.87z"/>
</g>
</svg>
