# Blender v2.79 (sub 0) OBJ File: 'hook4.blend'
# www.blender.org
mtllib hook4.mtl
o Circle.001_Circle.005
v -0.804249 0.000000 0.282418
v -0.772317 -0.000000 0.344352
v -0.769365 0.000000 0.378468
v -0.752918 0.000000 0.408251
v -0.735662 0.000000 0.437278
v -0.711924 0.000916 0.475391
v -0.832453 0.000000 0.312215
v -0.834586 0.000000 0.352365
v -0.815413 0.000000 0.401567
v -0.797357 0.000000 0.434313
v -0.778302 0.000000 0.466191
v -0.758902 0.000000 0.494187
v -0.039076 0.000000 -0.066630
v -0.067156 0.000000 -0.038166
v -0.077241 0.000000 0.000525
v -0.066630 0.000000 0.039076
v -0.038166 0.000000 0.067156
v -0.062943 0.000000 -0.107329
v -0.108270 0.000000 -0.075527
v -0.124421 0.000000 0.000846
v -0.122529 0.000000 0.063047
v -0.061478 0.000000 0.108175
v -0.748294 0.000000 0.307547
v -0.688695 0.000000 0.277987
v -0.564913 0.000000 0.219238
v -0.441130 0.000000 0.160489
v -0.317347 0.000000 0.101740
v -0.210025 0.000000 0.061068
v -0.167128 -0.000000 0.008680
v -0.156014 0.000000 -0.042946
v -0.216423 0.000000 -0.005171
v -0.340206 0.000000 0.053577
v -0.463988 0.000000 0.112326
v -0.587771 0.000000 0.171075
v -0.711554 0.000000 0.229824
v -0.766718 0.000000 0.260606
v -0.176994 0.000000 0.053037
v -0.147377 0.000000 0.054357
v 0.767821 0.000000 0.253048
v 0.736735 -0.000000 0.315410
v 0.731544 0.000000 0.347030
v 0.718049 0.000000 0.375017
v 0.702094 0.000000 0.403217
v 0.684001 0.000000 0.430512
v 0.796428 0.000000 0.282459
v 0.799106 0.000000 0.322575
v 0.777903 0.000000 0.369501
v 0.762839 0.000000 0.400472
v 0.745123 0.000000 0.431546
v 0.720230 -0.000000 0.464065
v -0.000525 0.000000 -0.077241
v 0.038166 0.000000 -0.067156
v 0.066630 0.000000 -0.039076
v 0.077241 0.000000 -0.000525
v 0.067156 0.000000 0.038166
v 0.039076 0.000000 0.066630
v 0.000525 0.000000 0.077241
v -0.000846 0.000000 -0.124421
v 0.061478 0.000000 -0.108175
v 0.107233 0.000000 -0.076992
v 0.124421 0.000000 -0.000846
v 0.123375 0.000000 0.061374
v 0.062943 0.000000 0.107329
v 0.000846 0.000000 0.124421
v 0.712214 0.000000 0.278935
v 0.652218 0.000000 0.250188
v 0.537954 0.000000 0.197848
v 0.443272 0.000000 0.154474
v 0.318702 0.000000 0.097414
v 0.210836 0.000000 0.058206
v 0.167231 -0.000000 0.006406
v 0.155415 0.000000 -0.045064
v 0.216333 0.000000 -0.008114
v 0.340903 0.000000 0.048946
v 0.465473 0.000000 0.106006
v 0.560155 0.000000 0.149379
v 0.674419 0.000000 0.201719
v 0.729997 0.000000 0.231748
v 0.177699 0.000000 0.050625
v 0.148103 0.000000 0.052348
v -0.804249 -0.056382 0.282418
v -0.772317 -0.056382 0.344352
v -0.769365 -0.056382 0.378468
v -0.752918 -0.056382 0.408251
v -0.735662 -0.056382 0.437278
v -0.711924 -0.055466 0.475391
v -0.832453 -0.056382 0.312215
v -0.834586 -0.056382 0.352365
v -0.815413 -0.056382 0.401567
v -0.797357 -0.056382 0.434313
v -0.778302 -0.056382 0.466191
v -0.758902 -0.056382 0.494187
v -0.039076 -0.056382 -0.066630
v -0.067156 -0.056382 -0.038166
v -0.077241 -0.056382 0.000525
v -0.066630 -0.056382 0.039076
v -0.038166 -0.056382 0.067156
v -0.062943 -0.056382 -0.107329
v -0.108270 -0.056382 -0.075527
v -0.124421 -0.056382 0.000846
v -0.122529 -0.056382 0.063047
v -0.061478 -0.056382 0.108175
v -0.748294 -0.056382 0.307547
v -0.688695 -0.056382 0.277987
v -0.564913 -0.056382 0.219238
v -0.441130 -0.056382 0.160489
v -0.317347 -0.056382 0.101740
v -0.210025 -0.056382 0.061068
v -0.167128 -0.056382 0.008680
v -0.156014 -0.056382 -0.042946
v -0.216423 -0.056382 -0.005171
v -0.340206 -0.056382 0.053577
v -0.463988 -0.056382 0.112326
v -0.587771 -0.056382 0.171075
v -0.711554 -0.056382 0.229824
v -0.766718 -0.056382 0.260606
v -0.176994 -0.056382 0.053037
v -0.147377 -0.056382 0.054357
v 0.767821 -0.056382 0.253048
v 0.736735 -0.056382 0.315410
v 0.731544 -0.056382 0.347030
v 0.718049 -0.056382 0.375017
v 0.702094 -0.056382 0.403217
v 0.684001 -0.056382 0.430512
v 0.796428 -0.056382 0.282459
v 0.799106 -0.056382 0.322575
v 0.777903 -0.056382 0.369501
v 0.762839 -0.056382 0.400472
v 0.745123 -0.056382 0.431546
v 0.720230 -0.056382 0.464065
v -0.000525 -0.056382 -0.077241
v 0.038166 -0.056382 -0.067156
v 0.066630 -0.056382 -0.039076
v 0.077241 -0.056382 -0.000525
v 0.067156 -0.056382 0.038166
v 0.039076 -0.056382 0.066630
v 0.000525 -0.056382 0.077241
v -0.000846 -0.056382 -0.124421
v 0.061478 -0.056382 -0.108175
v 0.107233 -0.056382 -0.076992
v 0.124421 -0.056382 -0.000846
v 0.123375 -0.056382 0.061374
v 0.062943 -0.056382 0.107329
v 0.000846 -0.056382 0.124421
v 0.712214 -0.056382 0.278935
v 0.652218 -0.056382 0.250188
v 0.537954 -0.056382 0.197848
v 0.443272 -0.056382 0.154474
v 0.318702 -0.056382 0.097414
v 0.210836 -0.056382 0.058206
v 0.167231 -0.056382 0.006406
v 0.155415 -0.056382 -0.045064
v 0.216333 -0.056382 -0.008114
v 0.340903 -0.056382 0.048946
v 0.465473 -0.056382 0.106006
v 0.560155 -0.056382 0.149379
v 0.674419 -0.056382 0.201719
v 0.729997 -0.056382 0.231748
v 0.177699 -0.056382 0.050625
v 0.148103 -0.056382 0.052348
vt 0.037351 0.116188
vt 0.018021 0.153041
vt 0.001302 0.135128
vt 0.000197 0.111142
vt 0.042657 0.093087
vt 0.015254 0.079099
vt 0.058804 0.063860
vt 0.032374 0.048109
vt 0.076827 0.035750
vt 0.051484 0.018305
vt 0.096650 0.008880
vt 0.065453 0.000203
vt 0.456869 0.347593
vt 0.473519 0.364710
vt 0.459094 0.388915
vt 0.432158 0.369732
vt 0.497774 0.278956
vt 0.474625 0.284816
vt 0.460875 0.260222
vt 0.498164 0.250781
vt 0.451009 0.324444
vt 0.422834 0.324054
vt 0.457508 0.301466
vt 0.424225 0.286916
vt 0.496497 0.371209
vt 0.496107 0.399384
vt 0.397362 0.319196
vt 0.403783 0.350074
vt 0.051543 0.138269
vt 0.040343 0.166226
vt 0.087011 0.156174
vt 0.073158 0.184840
vt 0.160688 0.191779
vt 0.146835 0.220446
vt 0.234365 0.227384
vt 0.220511 0.256051
vt 0.308042 0.262989
vt 0.294188 0.291656
vt 0.371964 0.287730
vt 0.367865 0.327261
vt 0.409349 0.292001
vt 0.391656 0.292665
vt 0.962524 0.128990
vt 0.999803 0.124974
vt 0.998035 0.148920
vt 0.980827 0.166364
vt 0.957858 0.105751
vt 0.985639 0.092526
vt 0.942527 0.076088
vt 0.969383 0.061075
vt 0.925288 0.047491
vt 0.951105 0.030753
vt 0.906216 0.020083
vt 0.927993 0.000197
vt 0.536763 0.348699
vt 0.560852 0.371513
vt 0.533396 0.389943
vt 0.519646 0.365348
vt 0.535176 0.261250
vt 0.520752 0.285455
vt 0.543262 0.325721
vt 0.571437 0.326111
vt 0.537401 0.302572
vt 0.571074 0.288948
vt 0.597033 0.321959
vt 0.589761 0.352648
vt 0.958149 0.178926
vt 0.947726 0.150670
vt 0.924831 0.196625
vt 0.911776 0.167586
vt 0.850197 0.230178
vt 0.837142 0.201139
vt 0.775564 0.263731
vt 0.762509 0.234692
vt 0.700930 0.297284
vt 0.687875 0.268245
vt 0.626296 0.330837
vt 0.623292 0.291207
vt 0.585803 0.294443
vt 0.603471 0.295596
vt 0.037351 0.682976
vt 0.000197 0.688023
vt 0.001302 0.664037
vt 0.018020 0.646123
vt 0.042657 0.706078
vt 0.015254 0.720066
vt 0.058804 0.735305
vt 0.032374 0.751056
vt 0.076827 0.763414
vt 0.051484 0.780860
vt 0.096651 0.790284
vt 0.065454 0.798961
vt 0.456868 0.451569
vt 0.432157 0.429430
vt 0.459093 0.410247
vt 0.473518 0.434452
vt 0.497773 0.520207
vt 0.498163 0.548381
vt 0.460874 0.538941
vt 0.474624 0.514346
vt 0.451007 0.474718
vt 0.422833 0.475108
vt 0.457506 0.497696
vt 0.424224 0.512247
vt 0.496106 0.399779
vt 0.496496 0.427953
vt 0.397361 0.479967
vt 0.403781 0.449088
vt 0.040342 0.632939
vt 0.051542 0.660895
vt 0.073157 0.614324
vt 0.087011 0.642991
vt 0.146834 0.578718
vt 0.160688 0.607385
vt 0.220510 0.543113
vt 0.234364 0.571780
vt 0.294187 0.507507
vt 0.308041 0.536174
vt 0.367864 0.471902
vt 0.371963 0.511433
vt 0.409348 0.507162
vt 0.391655 0.506498
vt 0.962524 0.670170
vt 0.980827 0.632796
vt 0.998034 0.650239
vt 0.999802 0.674186
vt 0.957858 0.693409
vt 0.985639 0.706634
vt 0.942527 0.723072
vt 0.969383 0.738086
vt 0.925289 0.751669
vt 0.951105 0.768407
vt 0.906217 0.779077
vt 0.927994 0.798963
vt 0.536762 0.450464
vt 0.519644 0.433814
vt 0.533394 0.409219
vt 0.560851 0.427649
vt 0.520750 0.513708
vt 0.535175 0.537912
vt 0.543261 0.473441
vt 0.571435 0.473051
vt 0.537400 0.496590
vt 0.571073 0.510214
vt 0.597032 0.477203
vt 0.589759 0.446514
vt 0.947726 0.648490
vt 0.958148 0.620234
vt 0.911776 0.631574
vt 0.924830 0.602535
vt 0.837142 0.598021
vt 0.850197 0.568982
vt 0.762508 0.564469
vt 0.775563 0.535430
vt 0.687874 0.530916
vt 0.700929 0.501877
vt 0.623291 0.507954
vt 0.626295 0.468324
vt 0.585802 0.504719
vt 0.603470 0.503566
vt 0.099724 0.935234
vt 0.099724 0.901561
vt 0.117430 0.901561
vt 0.117430 0.935234
vt 0.785287 0.901166
vt 0.785287 0.867493
vt 0.809167 0.867493
vt 0.809167 0.901166
vt 0.833046 0.867493
vt 0.833046 0.901166
vt 0.137731 0.901561
vt 0.137731 0.935234
vt 0.856925 0.867493
vt 0.856925 0.901166
vt 0.084003 0.935234
vt 0.084003 0.901561
vt 0.106250 0.799358
vt 0.106250 0.833031
vt 0.071731 0.833031
vt 0.071731 0.799358
vt 0.880805 0.867493
vt 0.880804 0.901166
vt 0.032579 0.833426
vt 0.032579 0.867098
vt 0.000197 0.867098
vt 0.000198 0.833426
vt 0.539769 0.799358
vt 0.539769 0.833031
vt 0.513844 0.833031
vt 0.513844 0.799358
vt 0.904684 0.867493
vt 0.904684 0.901166
vt 0.124073 0.901166
vt 0.124073 0.867493
vt 0.150322 0.867493
vt 0.150322 0.901166
vt 0.761408 0.901166
vt 0.761408 0.867493
vt 0.451761 0.935234
vt 0.451761 0.901561
vt 0.491493 0.901561
vt 0.491493 0.935234
vt 0.928563 0.867493
vt 0.928563 0.901166
vt 0.737529 0.901166
vt 0.737529 0.867493
vt 0.369932 0.935234
vt 0.369932 0.901561
vt 0.038662 0.799358
vt 0.038662 0.833030
vt 0.000197 0.833030
vt 0.000197 0.799358
vt 0.524385 0.901166
vt 0.524385 0.867493
vt 0.542090 0.867493
vt 0.542090 0.901166
vt 0.713650 0.901166
vt 0.713650 0.867493
vt 0.288103 0.935234
vt 0.288103 0.901561
vt 0.689770 0.901166
vt 0.689770 0.867493
vt 0.206274 0.935234
vt 0.206274 0.901561
vt 0.504084 0.901166
vt 0.504084 0.867493
vt 0.665891 0.901166
vt 0.665891 0.867493
vt 0.557811 0.867493
vt 0.557811 0.901166
vt 0.678210 0.833426
vt 0.678210 0.867098
vt 0.643691 0.867098
vt 0.643691 0.833426
vt 0.642012 0.901166
vt 0.642012 0.867493
vt 0.038662 0.935234
vt 0.038662 0.901561
vt 0.236097 0.833426
vt 0.236097 0.867098
vt 0.210172 0.867098
vt 0.210172 0.833426
vt 0.749743 0.833426
vt 0.749744 0.867098
vt 0.711279 0.867098
vt 0.711279 0.833426
vt 0.148801 0.799358
vt 0.148801 0.833031
vt 0.000197 0.935234
vt 0.000197 0.901561
vt 0.517741 0.935234
vt 0.517741 0.901561
vt 0.541444 0.901561
vt 0.541444 0.935234
vt 0.190053 0.867493
vt 0.190053 0.901166
vt 0.230630 0.799358
vt 0.230630 0.833031
vt 0.574835 0.901561
vt 0.574835 0.935234
vt 0.271882 0.867493
vt 0.271882 0.901166
vt 0.312459 0.799358
vt 0.312459 0.833031
vt 0.608226 0.901561
vt 0.608226 0.935234
vt 0.353711 0.867493
vt 0.353711 0.901166
vt 0.394288 0.799358
vt 0.394288 0.833031
vt 0.641617 0.901561
vt 0.641617 0.935234
vt 0.435540 0.867493
vt 0.435540 0.901166
vt 0.603152 0.867493
vt 0.603152 0.901166
vt 0.476117 0.799358
vt 0.476117 0.833031
vt 0.588284 0.799358
vt 0.588284 0.833031
vt 0.564272 0.833031
vt 0.564272 0.799358
vt 0.641617 0.867493
vt 0.641617 0.901166
vt 0.100370 0.901166
vt 0.100370 0.867493
vt 0.623688 0.799358
vt 0.623688 0.833031
vt 0.066979 0.901166
vt 0.066979 0.867493
vt 0.659093 0.799358
vt 0.659093 0.833031
vt 0.601140 0.867098
vt 0.601140 0.833426
vt 0.033588 0.901166
vt 0.033588 0.867493
vt 0.694497 0.799358
vt 0.694497 0.833031
vt 0.519311 0.867098
vt 0.519311 0.833426
vt 0.000197 0.901166
vt 0.000197 0.867493
vt 0.732809 0.799358
vt 0.732809 0.833031
vt 0.437482 0.867098
vt 0.437482 0.833426
vt 0.185669 0.833426
vt 0.185669 0.867098
vt 0.161657 0.867098
vt 0.161657 0.833426
vt 0.355653 0.867098
vt 0.355653 0.833426
vt 0.126253 0.867098
vt 0.126253 0.833426
vt 0.273824 0.867098
vt 0.273824 0.833426
vt 0.090848 0.867098
vt 0.090848 0.833426
vt 0.055444 0.867098
vt 0.055444 0.833426
vt 0.762299 0.799358
vt 0.762299 0.833030
vn 0.0000 1.0000 0.0000
vn -0.0131 0.9999 -0.0053
vn 0.0000 -1.0000 0.0000
vn 0.0131 -0.9999 0.0053
vn 0.0581 0.0000 0.9983
vn -0.2522 0.0000 0.9677
vn -0.7023 0.0000 0.7119
vn -0.2230 0.0000 0.9748
vn -0.9641 0.0000 0.2654
vn 0.3429 0.0000 0.9394
vn 0.5524 0.0000 -0.8336
vn -0.9677 0.0000 -0.2522
vn 0.3715 0.0000 0.9284
vn 0.4907 0.0000 -0.8713
vn -0.7119 0.0000 -0.7023
vn 0.8374 0.0000 0.5466
vn 0.2654 0.0000 0.9641
vn -0.4321 0.0000 0.9018
vn -0.2654 0.0000 -0.9641
vn 0.7119 0.0000 0.7023
vn -0.4165 0.0000 0.9092
vn 0.2522 0.0000 -0.9677
vn -0.0445 0.0000 0.9990
vn 0.9677 0.0000 0.2522
vn -0.4165 0.0000 0.9091
vn 0.5632 0.0000 -0.8263
vn 0.9641 0.0000 -0.2654
vn -0.4164 0.0000 0.9092
vn 0.2363 0.0000 0.9717
vn 0.7023 0.0000 -0.7119
vn -0.3416 0.0000 0.9398
vn -0.3301 0.0000 0.9439
vn -0.5637 0.0000 -0.8260
vn 0.6053 0.0000 0.7960
vn -0.5025 0.0000 -0.8646
vn 0.5186 0.0000 -0.8550
vn -0.9868 0.0000 -0.1620
vn 0.4443 0.0000 0.8959
vn -0.5743 0.0000 -0.8186
vn 0.4164 0.0000 -0.9092
vn -0.9007 0.0000 -0.4343
vn 0.4288 0.0000 0.9034
vn -0.8703 0.0000 -0.4924
vn 0.4165 0.0000 -0.9091
vn -0.8335 0.0000 -0.5525
vn -0.5944 0.0000 0.8042
vn 0.4165 0.0000 -0.9092
vn 0.9978 0.0000 -0.0666
vn 0.3544 0.0000 0.9351
vn 0.4753 0.0000 -0.8798
vn 0.9963 0.0000 -0.0862
vn 0.9113 0.0000 0.4118
vn 0.8754 0.0000 -0.4834
vn 0.8993 0.0000 0.4374
vn -0.5302 0.0000 -0.8479
vn 0.8596 0.0000 -0.5110
vn 0.8687 0.0000 0.4953
vn -0.4288 0.0000 -0.9034
vn 0.8488 0.0000 -0.5287
vn 0.7941 0.0000 0.6079
vn -0.9986 0.0000 -0.0530
vn 0.7168 0.0000 -0.6972
vn -0.9318 0.0000 0.3631
vn -0.8757 0.0000 0.4829
vn -0.4873 0.0000 -0.8733
vn -0.8583 0.0000 0.5131
vn -0.8299 0.0000 0.5579
vn -0.8219 0.0000 0.5696
vn -0.7263 0.0000 -0.6874
vn -0.6795 0.0000 0.7337
usemtl Material
s off
f 2/1/1 1/2/1 7/3/1 8/4/1
f 3/5/1 2/1/1 8/4/1 9/6/1
f 4/7/1 3/5/1 9/6/1 10/8/1
f 5/9/1 4/7/1 10/8/1 11/10/1
f 6/11/2 5/9/2 11/10/2 12/12/2
f 14/13/1 13/14/1 18/15/1 19/16/1
f 57/17/1 17/18/1 22/19/1 64/20/1
f 15/21/1 14/13/1 19/16/1 20/22/1
f 16/23/1 15/21/1 20/22/1 21/24/1
f 13/14/1 51/25/1 58/26/1 18/15/1
f 17/18/1 16/23/1 21/24/1 22/19/1
f 29/27/1 20/22/1 19/16/1 30/28/1
f 2/1/1 23/29/1 36/30/1 1/2/1
f 23/29/1 24/31/1 35/32/1 36/30/1
f 24/31/1 25/33/1 34/34/1 35/32/1
f 25/33/1 26/35/1 33/36/1 34/34/1
f 26/35/1 27/37/1 32/38/1 33/36/1
f 27/37/1 28/39/1 31/40/1 32/38/1
f 28/39/1 29/27/1 30/28/1 31/40/1
f 20/22/1 29/27/1 38/41/1 21/24/1
f 29/27/1 28/39/1 37/42/1 38/41/1
f 40/43/1 46/44/1 45/45/1 39/46/1
f 41/47/1 47/48/1 46/44/1 40/43/1
f 42/49/1 48/50/1 47/48/1 41/47/1
f 43/51/1 49/52/1 48/50/1 42/49/1
f 44/53/1 50/54/1 49/52/1 43/51/1
f 53/55/1 60/56/1 59/57/1 52/58/1
f 57/17/1 64/20/1 63/59/1 56/60/1
f 54/61/1 61/62/1 60/56/1 53/55/1
f 55/63/1 62/64/1 61/62/1 54/61/1
f 52/58/1 59/57/1 58/26/1 51/25/1
f 56/60/1 63/59/1 62/64/1 55/63/1
f 71/65/1 72/66/1 60/56/1 61/62/1
f 40/43/1 39/46/1 78/67/1 65/68/1
f 65/68/1 78/67/1 77/69/1 66/70/1
f 66/70/1 77/69/1 76/71/1 67/72/1
f 67/72/1 76/71/1 75/73/1 68/74/1
f 68/74/1 75/73/1 74/75/1 69/76/1
f 69/76/1 74/75/1 73/77/1 70/78/1
f 70/78/1 73/77/1 72/66/1 71/65/1
f 61/62/1 62/64/1 80/79/1 71/65/1
f 71/65/1 80/79/1 79/80/1 70/78/1
f 82/81/3 88/82/3 87/83/3 81/84/3
f 83/85/3 89/86/3 88/82/3 82/81/3
f 84/87/3 90/88/3 89/86/3 83/85/3
f 85/89/3 91/90/3 90/88/3 84/87/3
f 86/91/4 92/92/4 91/90/4 85/89/4
f 94/93/3 99/94/3 98/95/3 93/96/3
f 137/97/3 144/98/3 102/99/3 97/100/3
f 95/101/3 100/102/3 99/94/3 94/93/3
f 96/103/3 101/104/3 100/102/3 95/101/3
f 93/96/3 98/95/3 138/105/3 131/106/3
f 97/100/3 102/99/3 101/104/3 96/103/3
f 109/107/3 110/108/3 99/94/3 100/102/3
f 82/81/3 81/84/3 116/109/3 103/110/3
f 103/110/3 116/109/3 115/111/3 104/112/3
f 104/112/3 115/111/3 114/113/3 105/114/3
f 105/114/3 114/113/3 113/115/3 106/116/3
f 106/116/3 113/115/3 112/117/3 107/118/3
f 107/118/3 112/117/3 111/119/3 108/120/3
f 108/120/3 111/119/3 110/108/3 109/107/3
f 100/102/3 101/104/3 118/121/3 109/107/3
f 109/107/3 118/121/3 117/122/3 108/120/3
f 120/123/3 119/124/3 125/125/3 126/126/3
f 121/127/3 120/123/3 126/126/3 127/128/3
f 122/129/3 121/127/3 127/128/3 128/130/3
f 123/131/3 122/129/3 128/130/3 129/132/3
f 124/133/3 123/131/3 129/132/3 130/134/3
f 133/135/3 132/136/3 139/137/3 140/138/3
f 137/97/3 136/139/3 143/140/3 144/98/3
f 134/141/3 133/135/3 140/138/3 141/142/3
f 135/143/3 134/141/3 141/142/3 142/144/3
f 132/136/3 131/106/3 138/105/3 139/137/3
f 136/139/3 135/143/3 142/144/3 143/140/3
f 151/145/3 141/142/3 140/138/3 152/146/3
f 120/123/3 145/147/3 158/148/3 119/124/3
f 145/147/3 146/149/3 157/150/3 158/148/3
f 146/149/3 147/151/3 156/152/3 157/150/3
f 147/151/3 148/153/3 155/154/3 156/152/3
f 148/153/3 149/155/3 154/156/3 155/154/3
f 149/155/3 150/157/3 153/158/3 154/156/3
f 150/157/3 151/145/3 152/146/3 153/158/3
f 141/142/3 151/145/3 160/159/3 142/144/3
f 151/145/3 150/157/3 159/160/3 160/159/3
f 80/161/5 160/162/5 159/163/5 79/164/5
f 51/165/6 131/166/6 132/167/6 52/168/6
f 52/168/7 132/167/7 133/169/7 53/170/7
f 79/164/8 159/163/8 150/171/8 70/172/8
f 53/170/9 133/169/9 134/173/9 54/174/9
f 62/175/10 142/176/10 160/162/10 80/161/10
f 72/177/11 152/178/11 140/179/11 60/180/11
f 54/174/12 134/173/12 135/181/12 55/182/12
f 12/183/13 92/184/13 86/185/13 6/186/13
f 39/187/14 119/188/14 158/189/14 78/190/14
f 55/182/15 135/181/15 136/191/15 56/192/15
f 2/193/16 82/194/16 103/195/16 23/196/16
f 13/197/17 93/198/17 131/166/17 51/165/17
f 66/199/18 146/200/18 145/201/18 65/202/18
f 56/192/19 136/191/19 137/203/19 57/204/19
f 14/205/20 94/206/20 93/198/20 13/197/20
f 67/207/21 147/208/21 146/200/21 66/199/21
f 59/209/22 139/210/22 138/211/22 58/212/22
f 37/213/23 117/214/23 118/215/23 38/216/23
f 15/217/24 95/218/24 94/206/24 14/205/24
f 68/219/25 148/220/25 147/208/25 67/207/25
f 60/180/26 140/179/26 139/210/26 59/209/26
f 16/221/27 96/222/27 95/218/27 15/217/27
f 69/223/28 149/224/28 148/220/28 68/219/28
f 28/225/29 108/226/29 117/214/29 37/213/29
f 17/227/30 97/228/30 96/222/30 16/221/30
f 70/172/31 150/171/31 149/224/31 69/223/31
f 38/216/32 118/215/32 101/229/32 21/230/32
f 19/231/33 99/232/33 110/233/33 30/234/33
f 57/235/22 137/236/22 97/228/22 17/227/22
f 63/237/34 143/238/34 142/176/34 62/175/34
f 36/239/35 116/240/35 81/241/35 1/242/35
f 58/243/19 138/244/19 98/245/19 18/246/19
f 73/247/36 153/248/36 152/178/36 72/177/36
f 64/249/17 144/250/17 143/238/17 63/237/17
f 40/251/37 120/252/37 121/253/37 41/254/37
f 23/196/38 103/195/38 104/255/38 24/256/38
f 18/246/39 98/245/39 99/232/39 19/231/39
f 74/257/40 154/258/40 153/248/40 73/247/40
f 41/254/41 121/253/41 122/259/41 42/260/41
f 24/256/42 104/255/42 105/261/42 25/262/42
f 75/263/40 155/264/40 154/258/40 74/257/40
f 42/260/43 122/259/43 123/265/43 43/266/43
f 25/262/42 105/261/42 106/267/42 26/268/42
f 76/269/44 156/270/44 155/264/44 75/263/44
f 43/266/45 123/265/45 124/271/45 44/272/45
f 26/268/42 106/267/42 107/273/42 27/274/42
f 21/230/46 101/229/46 102/275/46 22/276/46
f 77/277/47 157/278/47 156/270/47 76/269/47
f 46/279/48 126/280/48 125/281/48 45/282/48
f 27/274/49 107/273/49 108/226/49 28/225/49
f 22/276/6 102/275/6 144/283/6 64/284/6
f 78/190/50 158/189/50 157/278/50 77/277/50
f 3/285/51 83/286/51 82/194/51 2/193/51
f 47/287/52 127/288/52 126/280/52 46/279/52
f 4/289/53 84/290/53 83/286/53 3/285/53
f 48/291/54 128/292/54 127/288/54 47/287/54
f 30/234/55 110/233/55 111/293/55 31/294/55
f 5/295/56 85/296/56 84/290/56 4/289/56
f 49/297/57 129/298/57 128/292/57 48/291/57
f 31/294/58 111/293/58 112/299/58 32/300/58
f 6/301/59 86/302/59 85/296/59 5/295/59
f 50/303/60 130/304/60 129/298/60 49/297/60
f 32/300/58 112/299/58 113/305/58 33/306/58
f 7/307/61 87/308/61 88/309/61 8/310/61
f 45/282/62 125/281/62 119/188/62 39/187/62
f 33/306/58 113/305/58 114/311/58 34/312/58
f 8/310/63 88/309/63 89/313/63 9/314/63
f 34/312/58 114/311/58 115/315/58 35/316/58
f 9/314/64 89/313/64 90/317/64 10/318/64
f 35/316/65 115/315/65 116/240/65 36/239/65
f 10/318/66 90/317/66 91/319/66 11/320/66
f 65/202/67 145/201/67 120/252/67 40/251/67
f 11/320/68 91/319/68 92/184/68 12/183/68
f 1/242/69 81/241/69 87/308/69 7/307/69
f 44/321/70 124/322/70 130/304/70 50/303/70
