# Blender v2.79 (sub 0) OBJ File: ''
# www.blender.org
mtllib visaren.mtl
o Plane
v -0.237791 0.076513 0.000000
v -0.125494 0.021069 0.000000
v -0.489961 0.498628 0.000000
v -0.452152 0.328491 0.000000
v -0.131787 2.607485 0.000000
v -0.361412 0.184818 0.000000
v -0.089738 2.403319 0.000000
v -0.070683 2.182820 0.000000
v -0.068792 1.938955 0.000000
v -0.095048 1.760941 0.000000
v -0.136007 1.635581 0.000000
v -0.196177 1.545874 0.000000
v -0.308858 1.462365 0.000000
v -0.202238 1.367088 0.000000
v -0.132671 1.248811 0.000000
v -0.144013 1.120577 0.000000
v -0.244206 0.992028 0.000000
v -0.404892 0.823781 0.000000
v -0.476728 0.651753 0.000000
v -0.284870 2.733269 0.000000
v -0.445480 2.888435 0.000000
v -0.557091 3.057212 0.000000
v -0.597924 3.204211 0.000000
v -0.581591 3.370266 0.000000
v -0.513535 3.539043 0.000000
v -0.434591 3.702376 0.000000
v -0.350203 3.871153 0.000000
v -0.252203 4.057431 0.000000
v -0.177723 4.225990 0.000000
v -0.126764 4.367110 0.000000
v -0.091484 4.504310 0.000000
v -0.071884 4.672869 0.000000
v -0.078689 4.904634 0.000000
v -0.099106 5.077041 0.000000
v -0.164893 5.297087 0.000000
v -0.232948 5.454118 0.000000
v -0.290114 5.551662 0.000000
v -0.212000 5.652963 0.000000
v -0.170253 5.748535 0.000000
v -0.174191 5.843056 0.000000
v -0.238523 5.933948 0.000000
v -0.421456 6.041747 0.000000
v -0.532523 6.152813 0.000000
v -0.610923 6.303079 0.000000
v -0.633789 6.456612 0.000000
v -0.591323 6.626478 0.000000
v -0.525989 6.783278 0.000000
v -0.434523 6.959678 0.000000
v -0.329990 7.178545 0.000000
v -0.248323 7.381077 0.000000
v -0.176457 7.599944 0.000000
v -0.127457 7.861277 0.000000
v -0.111124 8.112809 0.000000
v -0.091524 8.397009 0.000000
v -0.060527 8.622408 0.000000
v -0.034089 8.699900 0.000000
v 0.237791 0.076513 0.000000
v 0.125494 0.021069 0.000000
v -0.091524 8.397009 0.161222
v -0.111124 8.112809 0.161222
v -0.127457 7.861277 0.161222
v 0.000000 0.000000 0.000000
v 0.489961 0.498628 0.000000
v 0.452152 0.328491 0.000000
v -0.176457 7.599944 0.161222
v -0.248323 7.381077 0.161222
v 0.131787 2.607485 0.000000
v 0.361412 0.184818 0.000000
v -0.329990 7.178545 0.161222
v -0.434523 6.959678 0.161222
v 0.089738 2.403319 0.000000
v 0.070683 2.182820 0.000000
v -0.525989 6.783278 0.161222
v -0.591323 6.626478 0.161222
v 0.068792 1.938955 0.000000
v 0.095048 1.760941 0.000000
v -0.633789 6.456612 0.161222
v -0.610923 6.303079 0.161222
v 0.136007 1.635581 0.000000
v 0.196177 1.545874 0.000000
v -0.532523 6.152813 0.161222
v -0.421456 6.041747 0.161222
v 0.308858 1.462365 0.000000
v 0.202238 1.367088 0.000000
v -0.238523 5.933948 0.161222
v -0.174191 5.843056 0.161222
v 0.132671 1.248811 0.000000
v 0.144013 1.120577 0.000000
v -0.170253 5.748535 0.161222
v -0.212000 5.652963 0.161222
v 0.244206 0.992028 0.000000
v 0.404892 0.823781 0.000000
v -0.290114 5.551662 0.161222
v 0.476728 0.651753 0.000000
v 0.284870 2.733269 0.000000
v -0.232948 5.454118 0.161222
v 0.445480 2.888435 0.000000
v -0.164893 5.297087 0.161222
v 0.557091 3.057212 0.000000
v -0.099106 5.077041 0.161222
v 0.597924 3.204211 0.000000
v -0.078689 4.904634 0.161222
v 0.581591 3.370266 0.000000
v -0.071884 4.672869 0.161222
v 0.513535 3.539043 0.000000
v -0.091484 4.504310 0.161222
v 0.434591 3.702376 0.000000
v -0.126764 4.367110 0.161222
v 0.350203 3.871153 0.000000
v -0.177723 4.225990 0.161222
v 0.252203 4.057431 0.000000
v -0.252203 4.057431 0.161222
v 0.177723 4.225990 0.000000
v -0.350203 3.871153 0.161222
v 0.126764 4.367110 0.000000
v -0.434591 3.702376 0.161222
v 0.091484 4.504310 0.000000
v -0.513535 3.539043 0.161222
v 0.071884 4.672869 0.000000
v -0.581591 3.370266 0.161222
v 0.078689 4.904634 0.000000
v -0.597924 3.204211 0.161222
v 0.099106 5.077041 0.000000
v -0.557091 3.057212 0.161222
v 0.164893 5.297087 0.000000
v -0.445480 2.888435 0.161222
v 0.232948 5.454118 0.000000
v -0.284870 2.733269 0.161222
v 0.290114 5.551662 0.000000
v -0.476728 0.651753 0.161222
v 0.212000 5.652963 0.000000
v -0.404892 0.823781 0.161222
v 0.170253 5.748535 0.000000
v -0.244206 0.992028 0.161222
v -0.144013 1.120577 0.161222
v 0.174191 5.843056 0.000000
v -0.132671 1.248811 0.161222
v 0.238523 5.933948 0.000000
v -0.202238 1.367088 0.161222
v 0.421456 6.041747 0.000000
v -0.308858 1.462365 0.161222
v 0.532523 6.152813 0.000000
v -0.196177 1.545874 0.161222
v 0.610923 6.303079 0.000000
v -0.136007 1.635581 0.161222
v 0.633789 6.456612 0.000000
v -0.095048 1.760941 0.161222
v 0.591323 6.626478 0.000000
v -0.068792 1.938955 0.161222
v 0.525989 6.783278 0.000000
v -0.070683 2.182820 0.161222
v 0.434523 6.959678 0.000000
v -0.089738 2.403319 0.161222
v 0.329990 7.178545 0.000000
v -0.361412 0.184818 0.161222
v 0.248323 7.381077 0.000000
v -0.131787 2.607485 0.161222
v 0.176457 7.599944 0.000000
v -0.452152 0.328491 0.161222
v 0.127457 7.861277 0.000000
v -0.489961 0.498628 0.161222
v 0.111124 8.112809 0.000000
v -0.125494 0.021069 0.161222
v 0.091524 8.397009 0.000000
v -0.237791 0.076513 0.161222
v 0.060527 8.622408 0.000000
v 0.000000 8.741837 0.000000
v 0.034089 8.699900 0.000000
v -0.060527 8.622408 0.161222
v -0.034089 8.699900 0.161222
v 0.237791 0.076513 0.161222
v 0.125494 0.021069 0.161222
v 0.000000 0.000000 0.161222
v 0.489961 0.498628 0.161222
v 0.452152 0.328491 0.161222
v 0.131787 2.607485 0.161222
v 0.361412 0.184818 0.161222
v 0.089738 2.403319 0.161222
v 0.070683 2.182820 0.161222
v 0.068792 1.938955 0.161222
v 0.095048 1.760941 0.161222
v 0.136007 1.635581 0.161222
v 0.196177 1.545874 0.161222
v 0.308858 1.462365 0.161222
v 0.202238 1.367088 0.161222
v 0.132671 1.248811 0.161222
v 0.144013 1.120577 0.161222
v 0.244206 0.992028 0.161222
v 0.404892 0.823781 0.161222
v 0.476728 0.651753 0.161222
v 0.284870 2.733269 0.161222
v 0.445480 2.888435 0.161222
v 0.557091 3.057212 0.161222
v 0.597924 3.204211 0.161222
v 0.581591 3.370266 0.161222
v 0.513535 3.539043 0.161222
v 0.434591 3.702376 0.161222
v 0.350203 3.871153 0.161222
v 0.252203 4.057431 0.161222
v 0.177723 4.225990 0.161222
v 0.126764 4.367110 0.161222
v 0.091484 4.504310 0.161222
v 0.071884 4.672869 0.161222
v 0.078689 4.904634 0.161222
v 0.099106 5.077041 0.161222
v 0.164893 5.297087 0.161222
v 0.232948 5.454118 0.161222
v 0.290114 5.551662 0.161222
v 0.212000 5.652963 0.161222
v 0.170253 5.748535 0.161222
v 0.174191 5.843056 0.161222
v 0.238523 5.933948 0.161222
v 0.421456 6.041747 0.161222
v 0.532523 6.152813 0.161222
v 0.610923 6.303079 0.161222
v 0.633789 6.456612 0.161222
v 0.591323 6.626478 0.161222
v 0.525989 6.783278 0.161222
v 0.434523 6.959678 0.161222
v 0.329990 7.178545 0.161222
v 0.248323 7.381077 0.161222
v 0.176457 7.599944 0.161222
v 0.127457 7.861277 0.161222
v 0.111124 8.112809 0.161222
v 0.091524 8.397009 0.161222
v 0.060527 8.622408 0.161222
v 0.000000 8.741837 0.161222
v 0.034089 8.699900 0.161222
vt 0.000000 0.000000
vt 0.000000 0.000000
vt 0.000000 0.000000
vt 0.000000 0.000000
vt 0.000000 0.000000
vt 0.000000 0.000000
vt 0.000000 0.000000
vt 0.000000 0.000000
vt 0.000000 0.000000
vt 0.000000 0.000000
vt 0.000000 0.000000
vt 0.000000 0.000000
vt 0.000000 0.000000
vt 0.000000 0.000000
vt 0.000000 0.000000
vt 0.000000 0.000000
vt 0.000000 0.000000
vt 0.000000 0.000000
vt 0.000000 0.000000
vt 0.000000 0.000000
vt 0.000000 0.000000
vt 0.000000 0.000000
vt 0.000000 0.000000
vt 0.000000 0.000000
vt 0.000000 0.000000
vt 0.000000 0.000000
vt 0.000000 0.000000
vt 0.000000 0.000000
vt 0.000000 0.000000
vt 0.000000 0.000000
vt 0.000000 0.000000
vt 0.000000 0.000000
vt 0.000000 0.000000
vt 0.000000 0.000000
vt 0.000000 0.000000
vt 0.000000 0.000000
vt 0.000000 0.000000
vt 0.000000 0.000000
vt 0.000000 0.000000
vt 0.000000 0.000000
vt 0.000000 0.000000
vt 0.000000 0.000000
vt 0.000000 0.000000
vt 0.000000 0.000000
vt 0.000000 0.000000
vt 0.000000 0.000000
vt 0.000000 0.000000
vt 0.000000 0.000000
vt 0.000000 0.000000
vt 0.000000 0.000000
vt 0.000000 0.000000
vt 0.000000 0.000000
vt 0.000000 0.000000
vt 0.000000 0.000000
vt 0.000000 0.000000
vt 0.000000 0.000000
vt 0.000000 0.000000
vt 0.000000 0.000000
vt 0.000000 0.000000
vt 0.000000 0.000000
vt 0.000000 0.000000
vt 0.000000 0.000000
vt 0.000000 0.000000
vt 0.000000 0.000000
vt 0.000000 0.000000
vt 0.000000 0.000000
vt 0.000000 0.000000
vt 0.000000 0.000000
vt 0.000000 0.000000
vt 0.000000 0.000000
vt 0.000000 0.000000
vt 0.000000 0.000000
vt 0.000000 0.000000
vt 0.000000 0.000000
vt 0.000000 0.000000
vt 0.000000 0.000000
vt 0.000000 0.000000
vt 0.000000 0.000000
vt 0.000000 0.000000
vt 0.000000 0.000000
vt 0.000000 0.000000
vt 0.000000 0.000000
vt 0.000000 0.000000
vt 0.000000 0.000000
vt 0.000000 0.000000
vt 0.000000 0.000000
vt 0.000000 0.000000
vt 0.000000 0.000000
vt 0.000000 0.000000
vt 0.000000 0.000000
vt 0.000000 0.000000
vt 0.000000 0.000000
vt 0.000000 0.000000
vt 0.000000 0.000000
vt 0.000000 0.000000
vt 0.000000 0.000000
vt 0.000000 0.000000
vt 0.000000 0.000000
vt 0.000000 0.000000
vt 0.000000 0.000000
vt 0.000000 0.000000
vt 0.000000 0.000000
vt 0.000000 0.000000
vt 0.000000 0.000000
vt 0.000000 0.000000
vt 0.000000 0.000000
vt 0.000000 0.000000
vt 0.000000 0.000000
vt 0.000000 0.000000
vt 0.000000 0.000000
vt 0.000000 0.000000
vt 0.000000 0.000000
vt 0.000000 0.000000
vt 0.000000 0.000000
vt 0.000000 0.000000
vt 0.000000 0.000000
vt 0.000000 0.000000
vt 0.000000 0.000000
vt 0.000000 0.000000
vt 0.000000 0.000000
vt 0.000000 0.000000
vt 0.000000 0.000000
vt 0.000000 0.000000
vt 0.000000 0.000000
vt 0.000000 0.000000
vt 0.000000 0.000000
vt 0.000000 0.000000
vt 0.000000 0.000000
vt 0.000000 0.000000
vt 0.000000 0.000000
vt 0.000000 0.000000
vt 0.000000 0.000000
vt 0.000000 0.000000
vt 0.000000 0.000000
vt 0.000000 0.000000
vt 0.000000 0.000000
vt 0.000000 0.000000
vt 0.000000 0.000000
vt 0.000000 0.000000
vt 0.000000 0.000000
vt 0.000000 0.000000
vt 0.000000 0.000000
vt 0.000000 0.000000
vt 0.000000 0.000000
vt 0.000000 0.000000
vt 0.000000 0.000000
vt 0.000000 0.000000
vt 0.000000 0.000000
vt 0.000000 0.000000
vt 0.000000 0.000000
vt 0.000000 0.000000
vt 0.000000 0.000000
vt 0.000000 0.000000
vt 0.000000 0.000000
vt 0.000000 0.000000
vt 0.000000 0.000000
vt 0.000000 0.000000
vt 0.000000 0.000000
vt 0.000000 0.000000
vt 0.000000 0.000000
vt 0.000000 0.000000
vt 0.000000 0.000000
vt 0.000000 0.000000
vt 0.000000 0.000000
vt 0.000000 0.000000
vt 0.000000 0.000000
vt 0.000000 0.000000
vt 0.000000 0.000000
vt 0.000000 0.000000
vt 0.000000 0.000000
vt 0.000000 0.000000
vt 0.000000 0.000000
vt 0.000000 0.000000
vt 0.000000 0.000000
vt 0.000000 0.000000
vt 0.000000 0.000000
vt 0.000000 0.000000
vt 0.000000 0.000000
vt 0.000000 0.000000
vt 0.000000 0.000000
vt 0.000000 0.000000
vt 0.000000 0.000000
vt 0.000000 0.000000
vt 0.000000 0.000000
vt 0.000000 0.000000
vt 0.000000 0.000000
vt 0.000000 0.000000
vt 0.000000 0.000000
vt 0.000000 0.000000
vt 0.000000 0.000000
vt 0.000000 0.000000
vt 0.000000 0.000000
vt 0.000000 0.000000
vt 0.000000 0.000000
vt 0.000000 0.000000
vt 0.000000 0.000000
vt 0.000000 0.000000
vt 0.000000 0.000000
vt 0.000000 0.000000
vt 0.000000 0.000000
vt 0.000000 0.000000
vt 0.000000 0.000000
vt 0.000000 0.000000
vt 0.000000 0.000000
vt 0.000000 0.000000
vt 0.000000 0.000000
vt 0.000000 0.000000
vt 0.000000 0.000000
vt 0.000000 0.000000
vt 0.000000 0.000000
vt 0.000000 0.000000
vt 0.000000 0.000000
vt 0.000000 0.000000
vt 0.000000 0.000000
vt 0.000000 0.000000
vt 0.000000 0.000000
vt 0.000000 0.000000
vt 0.000000 0.000000
vt 0.000000 0.000000
vt 0.000000 0.000000
vt 0.000000 0.000000
vt 0.000000 0.000000
vt 0.000000 0.000000
vt 0.000000 0.000000
vt 0.000000 0.000000
vt 0.000000 0.000000
vt 0.000000 0.000000
vt 0.000000 0.000000
vn -0.9701 0.2425 0.0000
vn -0.8305 0.5570 0.0000
vn 0.9581 -0.2864 0.0000
vn 0.9175 -0.3976 0.0000
vn -0.8866 -0.4626 0.0000
vn -0.9505 0.3106 0.0000
vn -0.9893 0.1459 0.0000
vn -0.7071 -0.7071 0.0000
vn 0.9933 0.1155 0.0000
vn 0.9794 -0.2017 0.0000
vn 0.9685 0.2490 0.0000
vn 0.6590 -0.7522 0.0000
vn 0.9406 0.3396 0.0000
vn 0.8455 -0.5340 0.0000
vn -0.8162 -0.5777 0.0000
vn 0.9762 -0.2169 0.0000
vn -0.5954 0.8034 0.0000
vn 0.5954 0.8034 0.0000
vn -0.8944 0.4472 0.0000
vn 0.9147 0.4042 0.0000
vn 0.1656 -0.9862 0.0000
vn -0.9635 -0.2676 0.0000
vn -0.9794 -0.2017 0.0000
vn 0.4427 -0.8967 0.0000
vn -0.9991 -0.0416 0.0000
vn -0.8341 -0.5516 0.0000
vn 0.9829 0.1843 0.0000
vn 0.9003 0.4352 0.0000
vn 0.9501 0.3120 0.0000
vn -0.6948 -0.7192 0.0000
vn -0.7919 0.6106 0.0000
vn 0.9274 0.3740 0.0000
vn -0.9762 -0.2169 0.0000
vn -0.8628 -0.5056 0.0000
vn 0.9024 0.4310 0.0000
vn 0.9635 -0.2676 0.0000
vn -0.9963 0.0861 0.0000
vn -0.9175 -0.3976 0.0000
vn -0.4427 -0.8967 0.0000
vn 0.6948 -0.7192 0.0000
vn -0.9581 -0.2864 0.0000
vn -0.9829 0.1843 0.0000
vn 0.9891 -0.1473 0.0000
vn 0.9963 0.0861 0.0000
vn -0.9501 0.3120 0.0000
vn 0.9228 0.3853 0.0000
vn -0.9996 -0.0294 0.0000
vn -0.9274 0.3740 0.0000
vn 0.5077 -0.8615 0.0000
vn 0.7887 0.6147 0.0000
vn -0.9024 0.4310 0.0000
vn 0.9961 0.0881 0.0000
vn -0.9685 0.2490 0.0000
vn 0.8620 -0.5070 0.0000
vn 0.0000 -0.0000 1.0000
vn 0.8305 0.5570 0.0000
vn 0.9505 0.3106 0.0000
vn -0.9891 -0.1473 0.0000
vn -0.8850 0.4656 0.0000
vn 1.0000 -0.0078 0.0000
vn 0.9893 0.1459 0.0000
vn 0.9996 -0.0294 0.0000
vn -0.9003 0.4352 0.0000
vn 0.9963 -0.0861 0.0000
vn -1.0000 -0.0078 0.0000
vn -0.5077 -0.8615 0.0000
vn 0.9464 0.3229 0.0000
vn 0.7760 0.6308 0.0000
vn -0.9952 0.0979 0.0000
vn 0.9907 0.1362 0.0000
vn -0.9147 0.4042 0.0000
vn 0.8628 -0.5056 0.0000
vn 0.9931 -0.1176 0.0000
vn -0.9963 -0.0861 0.0000
vn 0.9976 0.0688 0.0000
vn 0.8850 0.4656 0.0000
vn 0.9979 0.0648 0.0000
vn 0.8944 0.4472 0.0000
vn -0.6590 -0.7522 0.0000
vn -0.9164 0.4003 0.0000
vn -0.9464 0.3229 0.0000
vn -0.8455 -0.5340 0.0000
vn -0.7760 0.6308 0.0000
vn -0.9907 0.1362 0.0000
vn 0.9952 0.0979 0.0000
vn -0.6349 -0.7726 0.0000
vn -0.1656 -0.9862 0.0000
vn -0.9976 0.0688 0.0000
vn 0.8878 0.4603 0.0000
vn 0.8341 -0.5516 0.0000
vn -0.9979 0.0648 0.0000
vn 0.9231 0.3846 0.0000
vn -0.9228 0.3853 0.0000
vn 0.9701 0.2425 0.0000
vn 0.6349 -0.7726 0.0000
vn -0.7232 0.6907 0.0000
vn -0.9931 -0.1176 0.0000
vn 0.8866 -0.4626 0.0000
vn -0.7887 0.6147 0.0000
vn 0.7071 -0.7071 0.0000
vn 0.7232 0.6907 0.0000
vn -0.9961 0.0881 0.0000
vn -0.9933 0.1155 0.0000
vn 0.8162 -0.5777 0.0000
vn -0.8620 -0.5070 0.0000
vn -0.8878 0.4603 0.0000
vn 0.9991 -0.0416 0.0000
vn 0.0000 0.0000 -1.0000
vn 0.7919 0.6106 0.0000
vn -0.9231 0.3846 0.0000
vn -0.9406 0.3396 0.0000
vn 0.6663 -0.7457 0.0000
vn -0.6663 -0.7457 0.0000
vn 0.9164 0.4003 0.0000
usemtl Material.002
s off
f 46/1/1 45/2/1 77/3/1 74/4/1
f 11/5/2 12/6/2 143/7/2 145/8/2
f 123/9/3 125/10/3 206/11/3 205/12/3
f 125/10/4 127/13/4 207/14/4 206/11/4
f 44/15/5 43/16/5 81/17/5 78/18/5
f 10/19/6 11/5/6 145/8/6 147/20/6
f 9/21/7 10/19/7 147/20/7 149/22/7
f 43/16/8 42/23/8 82/24/8 81/17/8
f 117/25/9 119/26/9 203/27/9 202/28/9
f 71/29/10 67/30/10 176/31/10 178/32/10
f 115/33/11 117/25/11 202/28/11 201/34/11
f 57/35/12 68/36/12 177/37/12 171/38/12
f 113/39/13 115/33/13 201/34/13 200/40/13
f 68/36/14 64/41/14 175/42/14 177/37/14
f 41/43/15 40/44/15 86/45/15 85/46/15
f 64/41/16 63/47/16 174/48/16 175/42/16
f 12/6/17 13/49/17 141/50/17 143/7/17
f 83/51/18 80/52/18 183/53/18 184/54/18
f 27/55/19 26/56/19 116/57/19 114/58/19
f 111/59/20 113/39/20 200/40/20 199/60/20
f 62/61/21 58/62/21 172/63/21 173/64/21
f 23/65/22 22/66/22 124/67/22 122/68/22
f 5/69/23 7/70/23 153/71/23 157/72/23
f 58/62/24 57/35/24 171/38/24 172/63/24
f 40/44/25 39/73/25 89/74/25 86/45/25
f 22/66/26 21/75/26 126/76/26 124/67/26
f 158/77/27 160/78/27 223/79/27 222/80/27
f 105/81/28 107/82/28 197/83/28 196/84/28
f 156/85/29 158/77/29 222/80/29 221/86/29
f 21/75/30 20/87/30 128/88/30 126/76/30
f 38/89/31 37/90/31 93/91/31 90/92/31
f 154/93/32 156/85/32 221/86/32 220/94/32
f 3/95/33 4/96/33 159/97/33 161/98/33
f 37/90/34 36/99/34 96/100/34 93/91/34
f 152/101/35 154/93/35 220/94/35 219/102/35
f 99/103/36 101/104/36 194/105/36 193/106/36
f 19/107/37 3/95/37 161/98/37 130/108/37
f 36/99/38 35/109/38 98/110/38 96/100/38
f 1/111/39 2/112/39 163/113/39 165/114/39
f 95/115/40 97/116/40 192/117/40 191/118/40
f 35/109/41 34/119/41 100/120/41 98/110/41
f 52/121/42 51/122/42 65/123/42 61/124/42
f 144/125/43 146/126/43 216/127/43 215/128/43
f 63/47/44 94/129/44 190/130/44 174/48/44
f 51/122/45 50/131/45 66/132/45 65/123/45
f 94/129/46 92/133/46 189/134/46 190/130/46
f 33/135/47 32/136/47 104/137/47 102/138/47
f 50/131/48 49/139/48 69/140/48 66/132/48
f 138/141/49 140/142/49 213/143/49 212/144/49
f 91/145/50 88/146/50 187/147/50 188/148/50
f 49/139/51 48/149/51 70/150/51 69/140/51
f 88/146/52 87/151/52 186/152/52 187/147/52
f 31/153/53 30/154/53 108/155/53 106/156/53
f 87/151/54 84/157/54 185/158/54 186/152/54
f 165/114/55 163/113/55 173/64/55 172/63/55 171/38/55 177/37/55 175/42/55 174/48/55 190/130/55 189/134/55 188/148/55 187/147/55 186/152/55 185/158/55 184/54/55 183/53/55 182/159/55 181/160/55 180/161/55 179/162/55 178/32/55 176/31/55 191/118/55 192/117/55 193/106/55 194/105/55 195/163/55 196/84/55 197/83/55 198/164/55 199/60/55 200/40/55 201/34/55 202/28/55 203/27/55 204/165/55 205/12/55 206/11/55 207/14/55 208/166/55 209/167/55 210/168/55 211/169/55 212/144/55 213/143/55 214/170/55 215/128/55 216/127/55 217/171/55 218/172/55 219/102/55 220/94/55 221/86/55 222/80/55 223/79/55 224/173/55 225/174/55 226/175/55 228/176/55 227/177/55 170/178/55 169/179/55 59/180/55 60/181/55 61/124/55 65/123/55 66/132/55 69/140/55 70/150/55 73/182/55 74/4/55 77/3/55 78/18/55 81/17/55 82/24/55 85/46/55 86/45/55 89/74/55 90/92/55 93/91/55 96/100/55 98/110/55 100/120/55 102/138/55 104/137/55 106/156/55 108/155/55 110/183/55 112/184/55 114/58/55 116/57/55 118/185/55 120/186/55 122/68/55 124/67/55 126/76/55 128/88/55 157/72/55 153/71/55 151/187/55 149/22/55 147/20/55 145/8/55 143/7/55 141/50/55 139/188/55 137/189/55 135/190/55 134/191/55 132/192/55 130/108/55 161/98/55 159/97/55 155/193/55
f 80/52/56 79/194/56 182/159/56 183/53/56
f 79/194/57 76/195/57 181/160/57 182/159/57
f 45/2/58 44/15/58 78/18/58 77/3/58
f 28/196/59 27/55/59 114/58/59 112/184/59
f 75/197/60 72/198/60 179/162/60 180/161/60
f 76/195/61 75/197/61 180/161/61 181/160/61
f 119/26/62 121/199/62 204/165/62 203/27/62
f 26/56/63 25/200/63 118/185/63 116/57/63
f 72/198/64 71/29/64 178/32/64 179/162/64
f 8/201/65 9/21/65 149/22/65 151/187/65
f 25/200/48 24/202/48 120/186/48 118/185/48
f 42/23/66 41/43/66 85/46/66 82/24/66
f 166/203/67 168/204/67 228/176/67 226/175/67
f 168/204/68 167/205/68 227/177/68 228/176/68
f 24/202/69 23/65/69 122/68/69 120/186/69
f 164/206/70 166/203/70 226/175/70 225/174/70
f 29/207/71 28/196/71 112/184/71 110/183/71
f 127/13/72 129/208/72 208/166/72 207/14/72
f 121/199/73 123/9/73 205/12/73 204/165/73
f 7/70/74 8/201/74 151/187/74 153/71/74
f 162/209/75 164/206/75 225/174/75 224/173/75
f 109/210/76 111/59/76 199/60/76 198/164/76
f 160/78/77 162/209/77 224/173/77 223/79/77
f 107/82/78 109/210/78 198/164/78 197/83/78
f 6/211/79 1/111/79 165/114/79 155/193/79
f 39/73/80 38/89/80 90/92/80 89/74/80
f 56/212/81 55/213/81 169/179/81 170/178/81
f 4/96/82 6/211/82 155/193/82 159/97/82
f 167/205/83 56/212/83 170/178/83 227/177/83
f 103/214/32 105/81/32 196/84/32 195/163/32
f 55/213/84 54/215/84 59/180/84 169/179/84
f 101/104/85 103/214/85 195/163/85 194/105/85
f 20/87/86 5/69/86 157/72/86 128/88/86
f 2/112/87 62/61/87 173/64/87 163/113/87
f 54/215/88 53/216/88 60/181/88 59/180/88
f 150/217/89 152/101/89 219/102/89 218/172/89
f 97/116/90 99/103/90 193/106/90 192/117/90
f 53/216/91 52/121/91 61/124/91 60/181/91
f 148/218/92 150/217/92 218/172/92 217/171/92
f 18/219/93 19/107/93 130/108/93 132/192/93
f 146/126/94 148/218/94 217/171/94 216/127/94
f 67/30/95 95/115/95 191/118/95 176/31/95
f 17/220/96 18/219/96 132/192/96 134/191/96
f 34/119/97 33/135/97 102/138/97 100/120/97
f 142/221/98 144/125/98 215/128/98 214/170/98
f 16/222/99 17/220/99 134/191/99 135/190/99
f 140/142/100 142/221/100 214/170/100 213/143/100
f 92/133/101 91/145/101 188/148/101 189/134/101
f 15/223/102 16/222/102 135/190/102 137/189/102
f 32/136/103 31/153/103 106/156/103 104/137/103
f 136/224/104 138/141/104 212/144/104 211/169/104
f 14/225/105 15/223/105 137/189/105 139/188/105
f 48/149/106 47/226/106 73/182/106 70/150/106
f 133/227/107 136/224/107 211/169/107 210/168/107
f 1/111/108 6/211/108 4/96/108 3/95/108 19/107/108 18/219/108 17/220/108 16/222/108 15/223/108 14/225/108 13/49/108 12/6/108 11/5/108 10/19/108 9/21/108 8/201/108 7/70/108 5/69/108 20/87/108 21/75/108 22/66/108 23/65/108 24/202/108 25/200/108 26/56/108 27/55/108 28/196/108 29/207/108 30/154/108 31/153/108 32/136/108 33/135/108 34/119/108 35/109/108 36/99/108 37/90/108 38/89/108 39/73/108 40/44/108 41/43/108 42/23/108 43/16/108 44/15/108 45/2/108 46/1/108 47/226/108 48/149/108 49/139/108 50/131/108 51/122/108 52/121/108 53/216/108 54/215/108 55/213/108 56/212/108 167/205/108 168/204/108 166/203/108 164/206/108 162/209/108 160/78/108 158/77/108 156/85/108 154/93/108 152/101/108 150/217/108 148/218/108 146/126/108 144/125/108 142/221/108 140/142/108 138/141/108 136/224/108 133/227/108 131/228/108 129/208/108 127/13/108 125/10/108 123/9/108 121/199/108 119/26/108 117/25/108 115/33/108 113/39/108 111/59/108 109/210/108 107/82/108 105/81/108 103/214/108 101/104/108 99/103/108 97/116/108 95/115/108 67/30/108 71/29/108 72/198/108 75/197/108 76/195/108 79/194/108 80/52/108 83/51/108 84/157/108 87/151/108 88/146/108 91/145/108 92/133/108 94/129/108 63/47/108 64/41/108 68/36/108 57/35/108 58/62/108 62/61/108 2/112/108
f 129/208/109 131/228/109 209/167/109 208/166/109
f 47/226/110 46/1/110 74/4/110 73/182/110
f 30/154/111 29/207/111 110/183/111 108/155/111
f 84/157/112 83/51/112 184/54/112 185/158/112
f 13/49/113 14/225/113 139/188/113 141/50/113
f 131/228/114 133/227/114 210/168/114 209/167/114
